<svg width="384" height="300" viewBox="0 0 384 300" fill="none" xmlns="http://www.w3.org/2000/svg">
<ellipse cx="192" cy="288.5" rx="75" ry="5.5" fill="#E6E6E6"/>
<path d="M305.401 49.2042V124.567C305.401 193.391 258.689 253.183 192.045 270C125.713 253.183 79 193.08 79 124.567V49.2042C131.318 43.2872 160.903 23.3564 192.356 0C223.498 23.3564 253.083 43.2872 305.401 49.2042Z" fill="#E95949"/>
<path d="M192.356 240.104C142.218 224.222 107.65 177.82 107.65 124.568V73.495C142.841 65.7096 168.688 51.6957 192.356 35.502C216.336 52.0071 241.872 66.021 277.062 73.495V124.568C276.751 177.82 242.495 224.222 192.356 240.104Z" fill="#B62616"/>
<path d="M173.361 181.247L145.645 153.219L159.658 139.205L173.361 152.596L224.745 101.523L238.759 115.537L173.361 181.247Z" fill="white"/>
</svg>
